<svg width="117" height="55" viewBox="0 0 117 55" fill="none" xmlns="http://www.w3.org/2000/svg">
<path d="M45.75 9.5L55.0598 25.625H36.4402L45.75 9.5Z" fill="#42B3FF"/>
<path d="M67.25 9.5L76.5598 25.625H57.9402L67.25 9.5Z" fill="#42B3FF"/>
<path d="M56.25 21.5L46.9402 5.375H65.5598L56.25 21.5Z" fill="#42B3FF"/>
<path d="M0.144 48V47.55H8.028C8.628 47.55 9.132 47.376 9.54 47.028C9.96 46.68 10.284 46.218 10.512 45.642C10.74 45.066 10.86 44.442 10.872 43.77H11.502V48H0.144ZM2.268 47.73V34.608H4.68V47.73H2.268ZM7.47 44.112C7.458 43.44 7.368 42.912 7.2 42.528C7.032 42.144 6.744 41.874 6.336 41.718C5.94 41.55 5.37 41.466 4.626 41.466V41.016C5.37 41.016 5.946 40.944 6.354 40.8C6.774 40.656 7.062 40.404 7.218 40.044C7.386 39.684 7.47 39.18 7.47 38.532H8.1V44.112H7.47ZM10.332 38.118C10.32 37.53 10.2 36.996 9.972 36.516C9.744 36.024 9.42 35.628 9 35.328C8.592 35.028 8.088 34.878 7.488 34.878H0.144V34.428H10.962V38.118H10.332ZM16.8013 48.216C16.2013 48.216 15.6313 48.042 15.0913 47.694C14.5633 47.334 14.1313 46.836 13.7953 46.2C13.4713 45.552 13.3093 44.802 13.3093 43.95C13.3093 43.098 13.4713 42.354 13.7953 41.718C14.1313 41.07 14.5633 40.572 15.0913 40.224C15.6193 39.864 16.1833 39.684 16.7833 39.684C17.3473 39.684 17.8393 39.804 18.2593 40.044C18.6913 40.284 19.0033 40.584 19.1953 40.944H19.6273L19.2673 43.68C19.2673 42.504 19.0513 41.646 18.6193 41.106C18.1993 40.566 17.6653 40.296 17.0173 40.296C16.6813 40.296 16.4113 40.398 16.2073 40.602C16.0033 40.794 15.8533 41.154 15.7573 41.682C15.6613 42.21 15.6133 42.972 15.6133 43.968C15.6133 44.952 15.6553 45.708 15.7393 46.236C15.8353 46.764 15.9853 47.124 16.1893 47.316C16.3933 47.508 16.6633 47.604 16.9993 47.604C17.6473 47.604 18.1873 47.334 18.6193 46.794C19.0513 46.242 19.2673 45.384 19.2673 44.22L19.6273 46.956H19.1953C19.0033 47.316 18.6973 47.616 18.2773 47.856C17.8573 48.096 17.3653 48.216 16.8013 48.216ZM19.2673 48V47.55H22.4713V48H19.2673ZM19.2673 47.73V34.716H21.2473V47.73H19.2673ZM17.4853 34.878V34.428H21.2473V34.878H17.4853ZM26.5638 48.216C25.8678 48.216 25.2978 48.03 24.8538 47.658C24.4218 47.274 24.2058 46.806 24.2058 46.254V40.17H26.1858V46.2C26.1858 46.644 26.2758 46.98 26.4558 47.208C26.6358 47.436 26.8818 47.55 27.1938 47.55C27.5658 47.55 27.9078 47.388 28.2198 47.064C28.5438 46.74 28.8018 46.302 28.9938 45.75C29.1978 45.198 29.2998 44.58 29.2998 43.896L29.6598 46.596H29.2278C28.9638 47.064 28.6218 47.454 28.2018 47.766C27.7818 48.066 27.2358 48.216 26.5638 48.216ZM29.2998 48V47.55H32.7018V48H29.2998ZM22.8018 40.35V39.9H26.1858V40.35H22.8018ZM29.2998 47.712V40.17H31.2798V47.712H29.2998ZM27.8238 40.35V39.9H31.2798V40.35H27.8238ZM36.4694 48.234C35.8454 48.234 35.3774 48.108 35.0654 47.856C34.7654 47.604 34.6154 47.226 34.6154 46.722V40.368H33.1574V39.918C33.5774 39.882 33.9674 39.72 34.3274 39.432C34.6994 39.132 35.0354 38.754 35.3354 38.298C35.6474 37.842 35.8994 37.344 36.0914 36.804H36.5954V39.918H38.6654V40.368H36.5954V46.596C36.5954 47.136 36.8174 47.406 37.2614 47.406C37.5134 47.406 37.7414 47.322 37.9454 47.154C38.1614 46.974 38.3834 46.68 38.6114 46.272L38.9714 46.47C38.6714 47.13 38.3294 47.592 37.9454 47.856C37.5614 48.108 37.0694 48.234 36.4694 48.234ZM44.0961 48.216C43.5201 48.216 42.9741 48.102 42.4581 47.874C41.9541 47.634 41.5101 47.316 41.1261 46.92C40.7421 46.512 40.4421 46.056 40.2261 45.552C40.0101 45.036 39.9021 44.502 39.9021 43.95C39.9021 43.218 40.0701 42.528 40.4061 41.88C40.7541 41.232 41.2341 40.704 41.8461 40.296C42.4581 39.888 43.1781 39.684 44.0061 39.684C44.6541 39.684 45.2361 39.834 45.7521 40.134C46.2801 40.422 46.6941 40.83 46.9941 41.358C47.2941 41.886 47.4441 42.492 47.4441 43.176V43.284H41.5581V42.834H45.3561V41.808C45.3561 40.716 44.8761 40.17 43.9161 40.17C43.5201 40.17 43.1961 40.29 42.9441 40.53C42.7041 40.758 42.5241 41.148 42.4041 41.7C42.2961 42.252 42.2421 43.002 42.2421 43.95C42.2421 44.922 42.3021 45.678 42.4221 46.218C42.5421 46.758 42.7401 47.136 43.0161 47.352C43.3041 47.568 43.6821 47.676 44.1501 47.676C44.7861 47.676 45.3381 47.514 45.8061 47.19C46.2741 46.866 46.6701 46.302 46.9941 45.498H47.4981C47.2581 46.338 46.8321 47.004 46.2201 47.496C45.6201 47.976 44.9121 48.216 44.0961 48.216ZM49.908 47.73V34.716H51.888V47.73H49.908ZM48.486 48V47.55H53.328V48H48.486ZM48.486 34.878V34.428H51.888V34.878H48.486ZM55.2341 47.73V34.716H57.2141V47.73H55.2341ZM53.8121 48V47.55H58.6541V48H53.8121ZM53.8121 34.878V34.428H57.2141V34.878H53.8121ZM60.9563 47.73V40.35H62.9363V47.73H60.9563ZM59.5343 48V47.55H64.3763V48H59.5343ZM59.3543 40.512V40.062H62.9363V40.512H59.3543ZM61.9103 37.236C61.5863 37.236 61.3043 37.122 61.0643 36.894C60.8363 36.654 60.7223 36.372 60.7223 36.048C60.7223 35.724 60.8363 35.448 61.0643 35.22C61.3043 34.98 61.5863 34.86 61.9103 34.86C62.2343 34.86 62.5103 34.98 62.7383 35.22C62.9783 35.448 63.0983 35.724 63.0983 36.048C63.0983 36.372 62.9783 36.654 62.7383 36.894C62.5103 37.122 62.2343 37.236 61.9103 37.236ZM69.1477 48.216C68.6557 48.216 68.1757 48.132 67.7077 47.964C67.2517 47.796 66.8797 47.574 66.5917 47.298L66.3217 48H65.7997V45.246H66.3757L66.4657 45.588C66.6337 46.236 66.9337 46.728 67.3657 47.064C67.8097 47.4 68.3977 47.568 69.1297 47.568C69.7297 47.568 70.1497 47.466 70.3897 47.262C70.6297 47.046 70.7497 46.74 70.7497 46.344C70.7497 45.948 70.5877 45.66 70.2637 45.48C69.9397 45.288 69.4417 45.12 68.7697 44.976C68.1937 44.856 67.6897 44.706 67.2577 44.526C66.8377 44.334 66.5077 44.07 66.2677 43.734C66.0277 43.386 65.9077 42.912 65.9077 42.312C65.9077 41.46 66.1537 40.812 66.6457 40.368C67.1377 39.912 67.8397 39.684 68.7517 39.684C69.2677 39.684 69.7117 39.756 70.0837 39.9C70.4677 40.044 70.7377 40.242 70.8937 40.494L71.0917 39.9H71.5597V42.51H71.0017L70.9477 42.24C70.8157 41.568 70.5817 41.082 70.2457 40.782C69.9217 40.482 69.4357 40.332 68.7877 40.332C68.2117 40.332 67.7797 40.446 67.4917 40.674C67.2157 40.89 67.0777 41.196 67.0777 41.592C67.0777 41.784 67.1317 41.958 67.2397 42.114C67.3477 42.258 67.5457 42.39 67.8337 42.51C68.1337 42.63 68.5477 42.75 69.0757 42.87C69.6877 43.002 70.2037 43.17 70.6237 43.374C71.0437 43.578 71.3617 43.848 71.5777 44.184C71.8057 44.52 71.9197 44.958 71.9197 45.498C71.9197 46.326 71.6677 46.986 71.1637 47.478C70.6597 47.97 69.9877 48.216 69.1477 48.216ZM77.6703 48.216C77.0943 48.216 76.5483 48.102 76.0323 47.874C75.5283 47.634 75.0843 47.316 74.7003 46.92C74.3163 46.512 74.0163 46.056 73.8003 45.552C73.5843 45.036 73.4763 44.502 73.4763 43.95C73.4763 43.218 73.6443 42.528 73.9803 41.88C74.3283 41.232 74.8083 40.704 75.4203 40.296C76.0323 39.888 76.7523 39.684 77.5803 39.684C78.2283 39.684 78.8103 39.834 79.3263 40.134C79.8543 40.422 80.2683 40.83 80.5683 41.358C80.8683 41.886 81.0183 42.492 81.0183 43.176V43.284H75.1323V42.834H78.9303V41.808C78.9303 40.716 78.4503 40.17 77.4903 40.17C77.0943 40.17 76.7703 40.29 76.5183 40.53C76.2783 40.758 76.0983 41.148 75.9783 41.7C75.8703 42.252 75.8163 43.002 75.8163 43.95C75.8163 44.922 75.8763 45.678 75.9963 46.218C76.1163 46.758 76.3143 47.136 76.5903 47.352C76.8783 47.568 77.2563 47.676 77.7243 47.676C78.3603 47.676 78.9123 47.514 79.3803 47.19C79.8483 46.866 80.2443 46.302 80.5683 45.498H81.0723C80.8323 46.338 80.4063 47.004 79.7943 47.496C79.1943 47.976 78.4863 48.216 77.6703 48.216ZM88.9902 47.73V41.646C88.9902 40.746 88.6302 40.296 87.9102 40.296C87.5142 40.296 87.1482 40.458 86.8122 40.782C86.4882 41.106 86.2242 41.55 86.0202 42.114C85.8282 42.666 85.7322 43.296 85.7322 44.004L85.3722 41.394H85.8042C86.0562 40.902 86.3982 40.494 86.8302 40.17C87.2742 39.846 87.8442 39.684 88.5402 39.684C89.2482 39.684 89.8302 39.876 90.2862 40.26C90.7422 40.632 90.9702 41.094 90.9702 41.646V47.73H88.9902ZM82.3302 48V47.55H86.9022V48H82.3302ZM83.7522 47.73V40.188H85.7322V47.73H83.7522ZM87.6222 48V47.55H92.1942V48H87.6222ZM82.3302 40.35V39.9H85.7322V40.35H82.3302ZM96.8508 48.216C96.3588 48.216 95.8788 48.132 95.4108 47.964C94.9548 47.796 94.5828 47.574 94.2948 47.298L94.0248 48H93.5028V45.246H94.0788L94.1688 45.588C94.3368 46.236 94.6368 46.728 95.0688 47.064C95.5128 47.4 96.1008 47.568 96.8328 47.568C97.4328 47.568 97.8528 47.466 98.0928 47.262C98.3328 47.046 98.4528 46.74 98.4528 46.344C98.4528 45.948 98.2908 45.66 97.9668 45.48C97.6428 45.288 97.1448 45.12 96.4728 44.976C95.8968 44.856 95.3928 44.706 94.9608 44.526C94.5408 44.334 94.2108 44.07 93.9708 43.734C93.7308 43.386 93.6108 42.912 93.6108 42.312C93.6108 41.46 93.8568 40.812 94.3488 40.368C94.8408 39.912 95.5428 39.684 96.4548 39.684C96.9708 39.684 97.4148 39.756 97.7868 39.9C98.1708 40.044 98.4408 40.242 98.5968 40.494L98.7948 39.9H99.2628V42.51H98.7048L98.6508 42.24C98.5188 41.568 98.2848 41.082 97.9488 40.782C97.6248 40.482 97.1388 40.332 96.4908 40.332C95.9148 40.332 95.4828 40.446 95.1948 40.674C94.9188 40.89 94.7808 41.196 94.7808 41.592C94.7808 41.784 94.8348 41.958 94.9428 42.114C95.0508 42.258 95.2488 42.39 95.5368 42.51C95.8368 42.63 96.2508 42.75 96.7788 42.87C97.3908 43.002 97.9068 43.17 98.3268 43.374C98.7468 43.578 99.0648 43.848 99.2808 44.184C99.5088 44.52 99.6228 44.958 99.6228 45.498C99.6228 46.326 99.3708 46.986 98.8668 47.478C98.3628 47.97 97.6908 48.216 96.8508 48.216ZM105.373 48.216C104.797 48.216 104.251 48.102 103.735 47.874C103.231 47.634 102.787 47.316 102.403 46.92C102.019 46.512 101.719 46.056 101.503 45.552C101.287 45.036 101.179 44.502 101.179 43.95C101.179 43.218 101.347 42.528 101.683 41.88C102.031 41.232 102.511 40.704 103.123 40.296C103.735 39.888 104.455 39.684 105.283 39.684C105.931 39.684 106.513 39.834 107.029 40.134C107.557 40.422 107.971 40.83 108.271 41.358C108.571 41.886 108.721 42.492 108.721 43.176V43.284H102.835V42.834H106.633V41.808C106.633 40.716 106.153 40.17 105.193 40.17C104.797 40.17 104.473 40.29 104.221 40.53C103.981 40.758 103.801 41.148 103.681 41.7C103.573 42.252 103.519 43.002 103.519 43.95C103.519 44.922 103.579 45.678 103.699 46.218C103.819 46.758 104.017 47.136 104.293 47.352C104.581 47.568 104.959 47.676 105.427 47.676C106.063 47.676 106.615 47.514 107.083 47.19C107.551 46.866 107.947 46.302 108.271 45.498H108.775C108.535 46.338 108.109 47.004 107.497 47.496C106.897 47.976 106.189 48.216 105.373 48.216Z" fill="#111111"/>
</svg>
